<svg width="96" height="96" viewBox="0 0 96 96" xmlns="http://www.w3.org/2000/svg">
  <defs>
    <linearGradient id="chartBg" x1="0%" y1="0%" x2="100%" y2="100%">
      <stop offset="0%" style="stop-color:#3b82f6;stop-opacity:1" />
      <stop offset="100%" style="stop-color:#1e40af;stop-opacity:1" />
    </linearGradient>
  </defs>

  <!-- Background -->
  <rect width="96" height="96" rx="20" fill="url(#chartBg)"/>

  <!-- Candlesticks -->
  <g opacity="0.9">
    <!-- Bullish candle -->
    <rect x="22" y="50" width="8" height="18" fill="#10b981" rx="1"/>
    <line x1="26" y1="45" x2="26" y2="68" stroke="#10b981" stroke-width="2"/>

    <!-- Bullish candle -->
    <rect x="35" y="40" width="8" height="22" fill="#10b981" rx="1"/>
    <line x1="39" y1="35" x2="39" y2="62" stroke="#10b981" stroke-width="2"/>

    <!-- Bearish candle -->
    <rect x="48" y="45" width="8" height="16" fill="#ef4444" rx="1"/>
    <line x1="52" y1="42" x2="52" y2="61" stroke="#ef4444" stroke-width="2"/>

    <!-- Bullish candle -->
    <rect x="61" y="30" width="8" height="25" fill="#10b981" rx="1"/>
    <line x1="65" y1="25" x2="65" y2="55" stroke="#10b981" stroke-width="2"/>
  </g>

  <!-- Volume bars at bottom -->
  <rect x="22" y="72" width="7" height="6" fill="white" opacity="0.4" rx="1"/>
  <rect x="35" y="68" width="7" height="10" fill="white" opacity="0.4" rx="1"/>
  <rect x="48" y="70" width="7" height="8" fill="white" opacity="0.4" rx="1"/>
  <rect x="61" y="65" width="7" height="13" fill="white" opacity="0.4" rx="1"/>
</svg>
