<svg width="512" height="512" viewBox="0 0 512 512" fill="none" xmlns="http://www.w3.org/2000/svg">
  <!-- Premium Grape Favicon - LyDian Brand -->
  <defs>
    <!-- Main Grape Gradient - Purple to Violet -->
    <linearGradient id="grapeGradient" x1="0%" y1="0%" x2="100%" y2="100%">
      <stop offset="0%" stop-color="#8B5CF6"/>
      <stop offset="50%" stop-color="#7C3AED"/>
      <stop offset="100%" stop-color="#6D28D9"/>
    </linearGradient>

    <!-- Highlight Gradient for 3D effect -->
    <linearGradient id="highlightGradient" x1="0%" y1="0%" x2="100%" y2="100%">
      <stop offset="0%" stop-color="#A78BFA"/>
      <stop offset="100%" stop-color="#8B5CF6"/>
    </linearGradient>

    <!-- Leaf Gradient -->
    <linearGradient id="leafGradient" x1="0%" y1="0%" x2="100%" y2="100%">
      <stop offset="0%" stop-color="#34D399"/>
      <stop offset="100%" stop-color="#10B981"/>
    </linearGradient>

    <!-- Stem Gradient -->
    <linearGradient id="stemGradient" x1="0%" y1="0%" x2="0%" y2="100%">
      <stop offset="0%" stop-color="#059669"/>
      <stop offset="100%" stop-color="#047857"/>
    </linearGradient>

    <!-- Drop shadow for depth -->
    <filter id="dropShadow" x="-20%" y="-20%" width="140%" height="140%">
      <feDropShadow dx="0" dy="4" stdDeviation="8" flood-color="#000000" flood-opacity="0.3"/>
    </filter>

    <!-- Inner glow for premium look -->
    <filter id="innerGlow">
      <feGaussianBlur stdDeviation="3" result="blur"/>
      <feComposite in="SourceGraphic" in2="blur" operator="over"/>
    </filter>
  </defs>

  <!-- Background Circle (optional for dark backgrounds) -->
  <circle cx="256" cy="256" r="240" fill="#0F0F0F" opacity="0"/>

  <!-- Main Grape Cluster with shadow -->
  <g filter="url(#dropShadow)">
    <!-- Stem -->
    <path d="M 256 65 Q 248 85, 252 105 Q 256 125, 256 140"
          stroke="url(#stemGradient)"
          stroke-width="12"
          stroke-linecap="round"
          fill="none"/>

    <!-- Curl decoration -->
    <path d="M 252 75 Q 235 70, 225 85 Q 218 100, 230 108"
          stroke="url(#stemGradient)"
          stroke-width="6"
          stroke-linecap="round"
          fill="none"/>

    <!-- Leaves -->
    <path d="M 215 100 Q 185 90, 165 110 Q 150 135, 170 160 Q 195 175, 225 155 Q 235 140, 225 120 Z"
          fill="url(#leafGradient)"/>
    <path d="M 297 100 Q 327 90, 347 110 Q 362 135, 342 160 Q 317 175, 287 155 Q 277 140, 287 120 Z"
          fill="url(#leafGradient)"/>

    <!-- Grape Berries - Row 1 (top) -->
    <circle cx="256" cy="175" r="38" fill="url(#grapeGradient)"/>
    <ellipse cx="245" cy="165" rx="12" ry="8" fill="url(#highlightGradient)" opacity="0.6"/>

    <!-- Grape Berries - Row 2 -->
    <circle cx="200" cy="225" r="36" fill="url(#grapeGradient)"/>
    <ellipse cx="190" cy="215" rx="11" ry="7" fill="url(#highlightGradient)" opacity="0.6"/>

    <circle cx="256" cy="230" r="36" fill="url(#grapeGradient)"/>
    <ellipse cx="246" cy="220" rx="11" ry="7" fill="url(#highlightGradient)" opacity="0.6"/>

    <circle cx="312" cy="225" r="36" fill="url(#grapeGradient)"/>
    <ellipse cx="302" cy="215" rx="11" ry="7" fill="url(#highlightGradient)" opacity="0.6"/>

    <!-- Grape Berries - Row 3 -->
    <circle cx="170" cy="285" r="34" fill="url(#grapeGradient)"/>
    <ellipse cx="160" cy="275" rx="10" ry="6" fill="url(#highlightGradient)" opacity="0.6"/>

    <circle cx="228" cy="290" r="34" fill="url(#grapeGradient)"/>
    <ellipse cx="218" cy="280" rx="10" ry="6" fill="url(#highlightGradient)" opacity="0.6"/>

    <circle cx="284" cy="290" r="34" fill="url(#grapeGradient)"/>
    <ellipse cx="274" cy="280" rx="10" ry="6" fill="url(#highlightGradient)" opacity="0.6"/>

    <circle cx="342" cy="285" r="34" fill="url(#grapeGradient)"/>
    <ellipse cx="332" cy="275" rx="10" ry="6" fill="url(#highlightGradient)" opacity="0.6"/>

    <!-- Grape Berries - Row 4 -->
    <circle cx="200" cy="345" r="32" fill="url(#grapeGradient)"/>
    <ellipse cx="190" cy="335" rx="9" ry="5" fill="url(#highlightGradient)" opacity="0.6"/>

    <circle cx="256" cy="350" r="32" fill="url(#grapeGradient)"/>
    <ellipse cx="246" cy="340" rx="9" ry="5" fill="url(#highlightGradient)" opacity="0.6"/>

    <circle cx="312" cy="345" r="32" fill="url(#grapeGradient)"/>
    <ellipse cx="302" cy="335" rx="9" ry="5" fill="url(#highlightGradient)" opacity="0.6"/>

    <!-- Grape Berries - Row 5 -->
    <circle cx="228" cy="400" r="30" fill="url(#grapeGradient)"/>
    <ellipse cx="218" cy="390" rx="8" ry="5" fill="url(#highlightGradient)" opacity="0.6"/>

    <circle cx="284" cy="400" r="30" fill="url(#grapeGradient)"/>
    <ellipse cx="274" cy="390" rx="8" ry="5" fill="url(#highlightGradient)" opacity="0.6"/>

    <!-- Grape Berries - Row 6 (bottom) -->
    <circle cx="256" cy="448" r="28" fill="url(#grapeGradient)"/>
    <ellipse cx="246" cy="438" rx="8" ry="5" fill="url(#highlightGradient)" opacity="0.6"/>
  </g>
</svg>
