<svg width="512" height="512" viewBox="0 0 512 512" fill="none" xmlns="http://www.w3.org/2000/svg">
  <!-- PWA Icon - Realistic 3D Grape Cluster with tight berries -->

  <defs>
    <!-- Gradient for 3D white grapes -->
    <radialGradient id="whiteGrapeGradient" cx="0.35" cy="0.35">
      <stop offset="0%" stop-color="#FFFFFF"/>
      <stop offset="60%" stop-color="#E8E8E8"/>
      <stop offset="100%" stop-color="#CCCCCC"/>
    </radialGradient>

    <!-- Circle frame gradient -->
    <linearGradient id="frameGradient" x1="0%" y1="0%" x2="100%" y2="100%">
      <stop offset="0%" stop-color="#FFFFFF"/>
      <stop offset="50%" stop-color="#F0F0F0"/>
      <stop offset="100%" stop-color="#E0E0E0"/>
    </linearGradient>

    <!-- Leaf gradient (realistic green) -->
    <linearGradient id="leaf3D" x1="0%" y1="0%" x2="100%" y2="100%">
      <stop offset="0%" stop-color="#B8E986"/>
      <stop offset="50%" stop-color="#9FD66D"/>
      <stop offset="100%" stop-color="#7CB342"/>
    </linearGradient>

    <!-- Stem gradient (brown) -->
    <linearGradient id="stem3D" x1="0%" y1="0%" x2="0%" y2="100%">
      <stop offset="0%" stop-color="#A1887F"/>
      <stop offset="100%" stop-color="#6D4C41"/>
    </linearGradient>

    <!-- Shadow filter for depth -->
    <filter id="shadow3D">
      <feGaussianBlur in="SourceAlpha" stdDeviation="2"/>
      <feOffset dx="1" dy="2" result="offsetblur"/>
      <feComponentTransfer>
        <feFuncA type="linear" slope="0.3"/>
      </feComponentTransfer>
      <feMerge>
        <feMergeNode/>
        <feMergeNode in="SourceGraphic"/>
      </feMerge>
    </filter>

    <!-- Text shadow -->
    <filter id="textShadow3D">
      <feDropShadow dx="0" dy="3" stdDeviation="4" flood-opacity="0.4"/>
    </filter>
  </defs>

  <!-- Dark Background with rounded corners -->
  <rect width="512" height="512" fill="#1C2536" rx="64"/>

  <!-- Main grape cluster group - Tighter, more realistic cluster -->
  <g transform="translate(256, 235)" filter="url(#shadow3D)">

    <!-- Outer Circle Frame with 3D effect -->
    <circle cx="0" cy="0" r="170" stroke="url(#frameGradient)" stroke-width="8" fill="none"/>
    <circle cx="0" cy="0" r="155" stroke="url(#frameGradient)" stroke-width="6" fill="none"/>

    <!-- Stem curl at top with 3D brown gradient and branches -->
    <path d="M 0 -130 Q -8 -115, -5 -100 L -3 -85"
          stroke="url(#stem3D)"
          stroke-width="6"
          fill="none"
          stroke-linecap="round"/>

    <!-- Branch stems to grapes -->
    <path d="M -3 -90 L -12 -75" stroke="url(#stem3D)" stroke-width="2" stroke-linecap="round"/>
    <path d="M -3 -90 L 8 -75" stroke="url(#stem3D)" stroke-width="2" stroke-linecap="round"/>

    <!-- Leaves with realistic 3D green gradients -->
    <path d="M -30 -108 Q -45 -104, -55 -94 Q -60 -85, -53 -76 Q -43 -69, -31 -77 Z"
          fill="url(#leaf3D)"
          stroke="#7CB342"
          stroke-width="1"/>

    <path d="M 25 -111 Q 40 -107, 50 -97 Q 55 -88, 48 -79 Q 38 -72, 26 -80 Z"
          fill="url(#leaf3D)"
          stroke="#7CB342"
          stroke-width="1"/>

    <path d="M -5 -118 Q 5 -115, 12 -108 Q 15 -101, 10 -95 Q 3 -91, -4 -96 Z"
          fill="url(#leaf3D)"
          stroke="#7CB342"
          stroke-width="1"/>

    <!-- Grape berries - MUCH tighter cluster, overlapping -->
    <!-- Back layer (darker grapes for depth) -->
    <circle cx="-35" cy="-15" r="16" fill="#D0D0D0" stroke="#B0B0B0" stroke-width="1"/>
    <circle cx="32" cy="-18" r="16" fill="#D0D0D0" stroke="#B0B0B0" stroke-width="1"/>
    <circle cx="-48" cy="18" r="15" fill="#D0D0D0" stroke="#B0B0B0" stroke-width="1"/>
    <circle cx="45" cy="15" r="15" fill="#D0D0D0" stroke="#B0B0B0" stroke-width="1"/>
    <circle cx="-40" cy="48" r="14" fill="#D0D0D0" stroke="#B0B0B0" stroke-width="1"/>
    <circle cx="38" cy="50" r="14" fill="#D0D0D0" stroke="#B0B0B0" stroke-width="1"/>

    <!-- Front layer - Main visible grapes (tightly packed) -->
    <!-- Top row -->
    <circle cx="0" cy="-60" r="18" fill="url(#whiteGrapeGradient)" stroke="#CCCCCC" stroke-width="1"/>

    <!-- Second row - very close -->
    <circle cx="-20" cy="-42" r="17" fill="url(#whiteGrapeGradient)" stroke="#CCCCCC" stroke-width="1"/>
    <circle cx="0" cy="-38" r="17" fill="url(#whiteGrapeGradient)" stroke="#CCCCCC" stroke-width="1"/>
    <circle cx="18" cy="-43" r="17" fill="url(#whiteGrapeGradient)" stroke="#CCCCCC" stroke-width="1"/>

    <!-- Third row - overlapping -->
    <circle cx="-38" cy="-20" r="16" fill="url(#whiteGrapeGradient)" stroke="#CCCCCC" stroke-width="1"/>
    <circle cx="-18" cy="-18" r="16" fill="url(#whiteGrapeGradient)" stroke="#CCCCCC" stroke-width="1"/>
    <circle cx="2" cy="-16" r="16" fill="url(#whiteGrapeGradient)" stroke="#CCCCCC" stroke-width="1"/>
    <circle cx="20" cy="-19" r="16" fill="url(#whiteGrapeGradient)" stroke="#CCCCCC" stroke-width="1"/>
    <circle cx="36" cy="-22" r="16" fill="url(#whiteGrapeGradient)" stroke="#CCCCCC" stroke-width="1"/>

    <!-- Fourth row - widest part -->
    <circle cx="-42" cy="5" r="15" fill="url(#whiteGrapeGradient)" stroke="#CCCCCC" stroke-width="1"/>
    <circle cx="-25" cy="8" r="15" fill="url(#whiteGrapeGradient)" stroke="#CCCCCC" stroke-width="1"/>
    <circle cx="-8" cy="10" r="15" fill="url(#whiteGrapeGradient)" stroke="#CCCCCC" stroke-width="1"/>
    <circle cx="8" cy="10" r="15" fill="url(#whiteGrapeGradient)" stroke="#CCCCCC" stroke-width="1"/>
    <circle cx="24" cy="8" r="15" fill="url(#whiteGrapeGradient)" stroke="#CCCCCC" stroke-width="1"/>
    <circle cx="40" cy="4" r="15" fill="url(#whiteGrapeGradient)" stroke="#CCCCCC" stroke-width="1"/>

    <!-- Fifth row -->
    <circle cx="-28" cy="32" r="14" fill="url(#whiteGrapeGradient)" stroke="#CCCCCC" stroke-width="1"/>
    <circle cx="-12" cy="35" r="14" fill="url(#whiteGrapeGradient)" stroke="#CCCCCC" stroke-width="1"/>
    <circle cx="4" cy="36" r="14" fill="url(#whiteGrapeGradient)" stroke="#CCCCCC" stroke-width="1"/>
    <circle cx="20" cy="34" r="14" fill="url(#whiteGrapeGradient)" stroke="#CCCCCC" stroke-width="1"/>

    <!-- Sixth row -->
    <circle cx="-20" cy="58" r="13" fill="url(#whiteGrapeGradient)" stroke="#CCCCCC" stroke-width="1"/>
    <circle cx="-5" cy="60" r="13" fill="url(#whiteGrapeGradient)" stroke="#CCCCCC" stroke-width="1"/>
    <circle cx="10" cy="60" r="13" fill="url(#whiteGrapeGradient)" stroke="#CCCCCC" stroke-width="1"/>

    <!-- Bottom grapes -->
    <circle cx="-10" cy="82" r="12" fill="url(#whiteGrapeGradient)" stroke="#CCCCCC" stroke-width="1"/>
    <circle cx="5" cy="84" r="12" fill="url(#whiteGrapeGradient)" stroke="#CCCCCC" stroke-width="1"/>

    <!-- Final bottom grape -->
    <circle cx="-2" cy="105" r="11" fill="url(#whiteGrapeGradient)" stroke="#CCCCCC" stroke-width="1"/>
  </g>

  <!-- LyDian Text with 3D shadow effect -->
  <text
    x="256"
    y="470"
    font-family="'Segoe UI', 'Helvetica Neue', Arial, sans-serif"
    font-size="48"
    font-weight="300"
    fill="#FFFFFF"
    text-anchor="middle"
    letter-spacing="8"
    filter="url(#textShadow3D)">
    LyDian
  </text>
</svg>
