<svg width="32" height="32" viewBox="0 0 32 32" fill="none" xmlns="http://www.w3.org/2000/svg">
  <!-- AILYDIAN AI Lens Pro Icon -->
  <rect width="32" height="32" rx="8" fill="url(#gradient)"/>
  
  <!-- AI Brain Pattern -->
  <path d="M16 6C19.866 6 23 9.134 23 13C23 16.866 19.866 20 16 20C12.134 20 9 16.866 9 13C9 9.134 12.134 6 16 6Z" 
        fill="rgba(255,255,255,0.9)" 
        stroke="rgba(14,165,233,0.5)" 
        stroke-width="1"/>
  
  <!-- Neural Network Nodes -->
  <circle cx="13" cy="11" r="1.5" fill="#0ea5e9"/>
  <circle cx="19" cy="11" r="1.5" fill="#0ea5e9"/>
  <circle cx="16" cy="15" r="1.5" fill="#3b82f6"/>
  <circle cx="12" cy="17" r="1" fill="#6366f1"/>
  <circle cx="20" cy="17" r="1" fill="#6366f1"/>
  
  <!-- Neural Connections -->
  <line x1="13" y1="11" x2="16" y2="15" stroke="#0ea5e9" stroke-width="0.5" opacity="0.7"/>
  <line x1="19" y1="11" x2="16" y2="15" stroke="#0ea5e9" stroke-width="0.5" opacity="0.7"/>
  <line x1="16" y1="15" x2="12" y2="17" stroke="#3b82f6" stroke-width="0.5" opacity="0.7"/>
  <line x1="16" y1="15" x2="20" y2="17" stroke="#3b82f6" stroke-width="0.5" opacity="0.7"/>
  
  <!-- Trading Chart Line -->
  <path d="M8 22 L12 20 L16 24 L20 18 L24 22" 
        stroke="#0ea5e9" 
        stroke-width="2" 
        fill="none" 
        opacity="0.8"/>
  
  <!-- Gradient Definition -->
  <defs>
    <linearGradient id="gradient" x1="0%" y1="0%" x2="100%" y2="100%">
      <stop offset="0%" style="stop-color:#0a0a0a;stop-opacity:1" />
      <stop offset="50%" style="stop-color:#1a1a1a;stop-opacity:1" />
      <stop offset="100%" style="stop-color:#0a0a0a;stop-opacity:1" />
    </linearGradient>
  </defs>
  
  <!-- Corner Accents -->
  <rect x="2" y="2" width="3" height="3" rx="1" fill="#0ea5e9" opacity="0.3"/>
  <rect x="27" y="27" width="3" height="3" rx="1" fill="#0ea5e9" opacity="0.3"/>
</svg>
