<svg xmlns="http://www.w3.org/2000/svg" width="800" height="600" viewBox="0 0 800 600">
  <defs>
    <linearGradient id="bg" x1="0%" y1="0%" x2="100%" y2="100%">
      <stop offset="0%" style="stop-color:#1a1a2e;stop-opacity:1" />
      <stop offset="100%" style="stop-color:#16213e;stop-opacity:1" />
    </linearGradient>
  </defs>
  <rect width="800" height="600" fill="url(#bg)"/>
  <g transform="translate(400,300)">
    <!-- Silhouette -->
    <ellipse cx="0" cy="80" rx="60" ry="15" fill="#0f1419" opacity="0.3"/>
    <path d="M -40,-60 Q -50,-80 -45,-100 L -35,-120 Q -30,-130 -20,-130 L 20,-130 Q 30,-130 35,-120 L 45,-100 Q 50,-80 40,-60 Z" fill="#2a2a3e" opacity="0.6"/>
    <ellipse cx="0" cy="-90" rx="35" ry="40" fill="#2a2a3e" opacity="0.6"/>
    <rect x="-45" y="-60" width="90" height="100" rx="15" fill="#2a2a3e" opacity="0.6"/>
    <rect x="-50" y="30" width="35" height="70" rx="10" fill="#2a2a3e" opacity="0.6"/>
    <rect x="15" y="30" width="35" height="70" rx="10" fill="#2a2a3e" opacity="0.6"/>
  </g>
  <text x="400" y="480" font-family="Arial, sans-serif" font-size="18" fill="#6b7280" text-anchor="middle">
    Görsel Yükleniyor...
  </text>
  <text x="400" y="510" font-family="Arial, sans-serif" font-size="14" fill="#4b5563" text-anchor="middle">
    Visual Asset Placeholder
  </text>
</svg>
